# xmcd CD database file
#
# Track frame offsets:
#	150
#	19265
#	40407
#	54360
#	76037
#	100117
#	115555
#	131917
#	155857
#	177477
#
# Disc length: 2623 seconds
#
# Revision: 0
# Processed by: cddbd v1.5PL3 Copyright (c) Steve Scherf et al.
# Submitted via: CDex 1.50beta8
#
DISCID=7d0a3d0a
DTITLE=本田美奈子 - MIDNIGHT SWING
DYEAR=1900
DGENRE=JPop
TTITLE0=ONE SHOT
TTITLE1=DO YOU REMEMBER?
TTITLE2=夢見心地
TTITLE3=ABOUT〜ADULT
TTITLE4=はじめて言うけど･･･
TTITLE5=悲しみSWING
TTITLE6=今夜はビートに乗れない
TTITLE7=DESTINY
TTITLE8=孤独なハリケーン
TTITLE9=EYE言葉はLONELY
EXTD=
EXTT0=
EXTT1=
EXTT2=
EXTT3=
EXTT4=
EXTT5=
EXTT6=
EXTT7=
EXTT8=
EXTT9=
PLAYORDER=
